<svg width="507" height="208" viewBox="0 0 507 208" fill="none" xmlns="http://www.w3.org/2000/svg">
<path d="M2.27393 20.6725C2.27393 20.6725 47.0262 157.537 58.2143 157.537C69.4024 157.537 102.967 2.1145 114.155 2.1145C122.624 2.1145 150.327 64.5918 163.291 94.9566C167.623 105.103 175.713 114.614 182.605 123.228C195.415 139.237 213.107 165.934 222.697 170.761C224.769 171.804 227.314 171.338 228.794 169.554C241.957 153.683 271.596 43.8699 281.976 43.8699C293.164 43.8699 326.728 206.252 337.916 206.252C349.104 206.252 382.669 46.1896 393.857 46.1896C402.59 46.1896 431.775 65.9781 444.161 74.6617C447.898 77.2816 452.053 79.6252 454.848 83.2327C468.648 101.042 496.963 164.198 505.738 162.177M505.738 162.177V162.177Z" stroke="white" stroke-width="3" stroke-linecap="round"/>
</svg>
