<svg width="506" height="185" viewBox="0 0 506 185" fill="none" xmlns="http://www.w3.org/2000/svg">
<path d="M2.25342 18.812C2.25342 18.812 46.9959 139.819 58.1816 139.819C69.3672 139.819 102.924 2.4043 114.11 2.4043C125.295 2.4043 170.038 98.7998 170.038 98.7998C180.105 100.851 214.78 154.176 225.966 152.125C237.152 152.125 270.709 39.3217 281.894 39.3217C293.08 39.3217 326.637 182.889 337.822 182.889C349.008 182.889 382.565 41.3727 393.751 41.3727C404.936 41.3727 449.679 70.0862 449.679 70.0862C459.746 72.1372 495.54 145.972 505.607 143.921M505.607 143.921V143.921Z" stroke="#F00000" stroke-width="3" stroke-linecap="round" stroke-linejoin="round"/>
</svg>
