<svg width="181" height="169" viewBox="0 0 181 169" fill="none" xmlns="http://www.w3.org/2000/svg">
<g clip-path="url(#clip0_194_282)">
<path d="M135.2 84.4998L67.6 126.75V42.25L135.2 84.4998ZM90.1333 0.0157471C40.4208 0.0157471 0.0167847 37.8945 0.0167847 84.5C0.0167847 131.105 40.4208 168.984 90.1333 168.984C139.846 168.984 180.25 131.105 180.25 84.5C180.25 37.8945 139.846 0.0157471 90.1333 0.0157471ZM90.1333 10.5468C133.757 10.5468 169.017 43.603 169.017 84.5C169.017 125.397 133.757 158.453 90.1333 158.453C46.5098 158.453 11.2499 125.397 11.2499 84.5C11.2499 43.603 46.5098 10.5468 90.1333 10.5468Z" fill="#016DFC"/>
</g>
<defs>
<clipPath id="clip0_194_282">
<rect width="180.267" height="169" fill="white"/>
</clipPath>
</defs>
</svg>
