<svg width="88" height="56" viewBox="0 0 88 56" fill="none" xmlns="http://www.w3.org/2000/svg">
<path d="M25.9234 3.88636C26.1682 3.88632 26.3665 3.68792 26.3665 3.44318C26.3665 3.19842 26.1681 3 25.9234 3V3.44318C25.9234 3 25.9235 3 25.9234 3L25.9205 3L25.9137 3.00002L25.8881 3.00017C25.8659 3.00034 25.8333 3.00066 25.7909 3.00131C25.7061 3.00261 25.582 3.00519 25.4229 3.01033C25.1046 3.0206 24.6457 3.04108 24.0795 3.08194C22.9477 3.16362 21.3837 3.32697 19.6549 3.65403C16.2182 4.30422 12.0435 5.61678 9.36004 8.30024C6.66014 11.0001 6.26506 13.916 6.55641 16.1496C6.70121 17.2597 7.01444 18.1987 7.29101 18.86C7.42952 19.1912 7.5595 19.4544 7.65587 19.6365C7.70409 19.7275 7.74396 19.7984 7.77239 19.8475C7.78661 19.8721 7.79797 19.8912 7.80608 19.9047L7.81578 19.9207L7.81872 19.9254L7.81969 19.927C7.81979 19.9271 7.82024 19.9279 7.93362 19.8571L7.82033 19.928C7.83852 19.9571 7.85954 19.9834 7.8828 20.0067C7.57231 20.9245 7.2876 21.8394 7.03235 22.7073C6.56829 24.2851 6.19722 25.723 5.94215 26.7665C5.81458 27.2884 5.71594 27.7119 5.64912 28.0053C5.61571 28.1521 5.59024 28.2663 5.57309 28.344L5.55363 28.4328L5.54866 28.4557L5.54704 28.4632C5.54702 28.4634 5.54691 28.4639 5.98025 28.5567L5.54704 28.4632C5.49576 28.7026 5.64806 28.9388 5.88739 28.9901C6.12672 29.0414 6.36231 28.8889 6.4136 28.6496L6.41508 28.6427L6.41976 28.6211L6.43863 28.535C6.45538 28.4591 6.48041 28.3468 6.51336 28.2021C6.57926 27.9127 6.67682 27.4938 6.80316 26.977C7.0559 25.943 7.42346 24.5188 7.88269 22.9574C8.80644 19.8166 10.0837 16.1835 11.5194 14.0299C12.9528 11.8798 14.747 10.4432 16.1867 9.54341C16.9058 9.09393 17.534 8.77999 17.9803 8.5792C18.2033 8.47884 18.3805 8.40689 18.5005 8.36051C18.5606 8.33732 18.6062 8.32054 18.6362 8.30981L18.669 8.29821L18.6763 8.29573L18.6774 8.29534C18.9094 8.21781 19.0348 7.96692 18.9575 7.73484C18.8801 7.50263 18.6291 7.37714 18.3969 7.45454L18.5253 7.83987C18.3969 7.45455 18.3971 7.45449 18.3969 7.45454L18.3949 7.4552L18.3913 7.45641L18.3794 7.4605C18.3694 7.46398 18.3551 7.46896 18.3369 7.4755C18.3005 7.48857 18.248 7.50785 18.1811 7.53372C18.0472 7.58544 17.8552 7.66352 17.6165 7.77091C17.1394 7.98559 16.475 8.31795 15.7169 8.79177C14.202 9.73858 12.3031 11.2565 10.7819 13.5382C9.85388 14.9303 9.00454 16.8731 8.2737 18.8897C8.222 18.7799 8.16628 18.6556 8.10874 18.5181C7.85442 17.9099 7.56751 17.0484 7.43532 16.035C7.17269 14.0214 7.51625 11.3975 9.98679 8.92699C12.4738 6.44002 16.424 5.16736 19.8197 4.52494C21.5071 4.2057 23.0361 4.0459 24.1433 3.966C24.6966 3.92607 25.1436 3.90616 25.4515 3.89623C25.6054 3.89126 25.7244 3.8888 25.8045 3.88757C25.8445 3.88696 25.8747 3.88666 25.8947 3.88651L25.9169 3.88638L25.9221 3.88636L25.9234 3.88636Z" fill="white"/>
<path d="M25.3151 5.23548C25.549 5.30746 25.6803 5.55546 25.6083 5.7894L25.1848 5.65906C25.6083 5.7894 25.6084 5.78927 25.6083 5.7894L25.6077 5.79159L25.6059 5.79726L25.5992 5.81883L25.5731 5.90164C25.5502 5.97398 25.5162 6.07994 25.4717 6.21554C25.3828 6.48671 25.2518 6.87658 25.0832 7.35334C24.7462 8.30641 24.2577 9.60896 23.6525 11.0057C23.0477 12.4013 22.3232 13.8981 21.513 15.2369C20.7064 16.5694 19.7972 17.7752 18.8139 18.5619C16.8757 20.1124 14.9265 20.5056 13.4589 20.5056C12.7275 20.5056 12.1169 20.4081 11.6867 20.3098C11.4714 20.2606 11.3006 20.211 11.1815 20.1729C11.122 20.1539 11.0754 20.1377 11.0425 20.1258C11.0261 20.1198 11.0131 20.115 11.0037 20.1114L10.9922 20.107L10.9885 20.1055L10.9871 20.105C10.9869 20.1049 10.9861 20.1046 11.1507 19.6931L10.9861 20.1046C10.7589 20.0137 10.6483 19.7558 10.7392 19.5285C10.83 19.3016 11.0874 19.191 11.3144 19.2813L11.3192 19.2831L11.3437 19.2922C11.3667 19.3005 11.403 19.3131 11.4517 19.3287C11.5491 19.3599 11.6956 19.4026 11.8842 19.4457C12.2619 19.532 12.8054 19.6192 13.4589 19.6192C14.7613 19.6192 16.5052 19.2738 18.2602 17.8698C19.1235 17.1792 19.9685 16.0768 20.7547 14.7779C21.5371 13.4853 22.2437 12.0276 22.8392 10.6533C23.4342 9.28016 23.9153 7.9975 24.2476 7.05781C24.4137 6.5882 24.5424 6.20482 24.6295 5.93932C24.673 5.80659 24.7061 5.70336 24.7282 5.6336L24.7531 5.55457L24.7593 5.53481L24.7611 5.52895C24.8331 5.29501 25.0812 5.1635 25.3151 5.23548Z" fill="white"/>
<path d="M19.8859 14.2002C20.1157 13.8631 20.0288 13.4036 19.6918 13.1738C19.3548 12.944 18.8952 13.0309 18.6654 13.3679C17.5385 15.0205 16.7199 15.8851 15.9654 16.3321C15.2528 16.7544 14.5241 16.8465 13.4373 16.742C13.0313 16.7029 12.6704 17.0004 12.6314 17.4065C12.5923 17.8125 12.8898 18.1734 13.2959 18.2124C14.5427 18.3324 15.6296 18.2483 16.7185 17.603C17.7657 16.9825 18.7348 15.8883 19.8859 14.2002Z" fill="white"/>
</svg>
