<svg width="506" height="185" viewBox="0 0 506 185" fill="none" xmlns="http://www.w3.org/2000/svg">
<path d="M2.25342 18.8122C2.25342 18.8122 46.9959 139.819 58.1816 139.819C69.3672 139.819 102.924 2.40442 114.11 2.40442C125.295 2.40442 170.038 98.7999 170.038 98.7999C180.105 100.851 214.78 154.176 225.966 152.125C237.152 152.125 270.709 39.3218 281.894 39.3218C293.08 39.3218 326.637 182.89 337.822 182.89C349.008 182.89 382.565 41.3728 393.751 41.3728C404.936 41.3728 449.679 70.0864 449.679 70.0864C459.746 72.1373 495.54 145.972 505.607 143.921M505.607 143.921V143.921Z" stroke="#F00000" stroke-width="3" stroke-linecap="round" stroke-linejoin="round"/>
</svg>
