<svg width="505" height="155" viewBox="0 0 505 155" fill="none" xmlns="http://www.w3.org/2000/svg">
<path d="M1.9292 46.8085C1.9292 46.8085 46.434 152.873 57.5602 152.873C68.6864 152.873 102.065 14.4497 113.191 14.4497C124.317 14.4497 168.822 71.9764 168.822 71.9764C173.829 73.7741 213.327 147.48 224.453 145.683C235.58 145.683 280.084 37.8199 280.084 37.8199C285.091 36.0222 324.589 0.0680366 335.715 1.86575C346.842 1.86575 391.346 100.74 391.346 100.74C396.353 102.537 435.851 149.278 446.977 147.48C458.104 147.48 502.609 18.0451 502.609 18.0451M502.609 18.0451V18.0451Z" stroke="#0086FF" stroke-width="3" stroke-linecap="round" stroke-linejoin="round"/>
</svg>
