<svg width="501" height="149" viewBox="0 0 501 149" fill="none" xmlns="http://www.w3.org/2000/svg">
<path d="M2.24414 44.8677C2.24414 44.8677 46.4352 147.083 57.483 147.083C68.5308 147.083 101.674 13.6833 112.722 13.6833C120.959 13.6833 147.622 44.5042 160.655 60.1849C165.48 65.9912 170.856 71.8625 175.081 78.1192C186.962 95.7115 209.606 133.387 220.265 139.375C222.074 140.392 224.335 140.128 225.901 138.767C236.273 129.751 259.598 79.0097 271.365 52.4378C275.931 42.1266 283.822 32.7203 292.777 25.866C305.038 16.481 321.801 3.84194 330.605 1.78224C332.626 1.30957 334.805 1.56176 336.422 2.86222C346.758 11.1752 369.836 57.1272 381.647 81.5573C386.36 91.306 393.748 100.558 401.458 108.161C413.839 120.371 431.878 138.437 441.112 141.489C443.082 142.141 445.305 141.806 446.757 140.324C460.85 125.945 499.394 17.1482 499.394 17.1482M499.394 17.1482V17.1482Z" stroke="#0086FF" stroke-width="3" stroke-linecap="round"/>
</svg>
